                            <svg xmlns="http://www.w3.org/2000/svg" xml:space="preserve" width="200" height="100" version="1.1" viewBox="3000 5000 4000 900" style="height:50px !important;">
                            <g>
                            <g>
                            <path class="fil0" d="M4226 5554c1,170 -10,140 -250,140 -244,0 -240,27 -240,-155 0,-42 -8,-159 11,-187 27,-41 104,-28 166,-28 77,0 331,4 388,-1 -10,-30 -42,-59 -70,-73 -40,-20 -81,-15 -129,-15 -94,0 -189,0 -283,0 -80,0 -149,33 -168,119 -10,44 -5,225 -4,280 2,80 62,142 137,149 36,3 230,1 283,1 105,0 173,6 222,-65 23,-34 27,-68 27,-117 0,-46 1,-94 0,-140l-324 0 1 90 234 2z" />
                            <path class="fil0" d="M4575 5325c37,-7 165,-1 212,-1 174,0 225,-24 225,97 0,36 0,72 0,108 0,63 16,152 -50,164 -32,6 -260,2 -325,2 -92,0 -115,-2 -115,-99 0,-36 0,-72 0,-108 0,-73 -17,-148 53,-162zm525 326c5,-33 4,-268 -2,-297 -9,-43 -35,-74 -61,-93 -35,-25 -74,-27 -124,-27 -101,0 -203,0 -304,0 -53,0 -88,8 -120,34 -25,19 -48,55 -54,96 -5,35 -5,272 2,302 11,45 35,72 63,91 40,27 68,27 123,27 101,0 203,0 304,0 88,0 160,-40 173,-132z" />
                            <path class="fil0" d="M6386 5332l1 -90 -14 0c-157,-1 -383,-4 -535,0l0 535 89 0 1 -222 443 0 0 -90 -441 0c-6,-20 -3,-101 -3,-128l459 -4z" />
                            <polygon class="fil0" points="5227,5777 5746,5777 5746,5688 5316,5688 5316,5242 5227,5242 " />
  </g>
 </g>
                                                                                                               </svg>
