 <svg version="1.1" id="Layer_1" xmlns="http://www.w3.org/2000/svg" xmlns:xlink="http://www.w3.org/1999/xlink" x="0px" y="0px" height="50" width="60"
                                 viewBox="-901 481 40 40" style="enable-background:new -901 481 195.9 40;" xml:space="preserve">
<g>
                            <path class="st0" d="M-873.8,492.8l-7.2,7.2l-2.5-2.5l9.5-9.5C-872,490.4-873.5,492.4-873.8,492.8" />
                            <path class="st0" d="M-877.4,489.3l-7.1,7.1l-2.5-2.5l9.5-9.4C-875.5,486.9-877.1,489-877.4,489.3" />
                            <path class="st0" d="M-881,481l2.5,2.5l-9.5,9.5l-2.5-2.5L-881,481z" />
                            <path class="st0" d="M-889.2,493.8l7.2,7.2l-2.5,2.5l-9.5-9.5C-891.6,492-889.6,493.6-889.2,493.8" />
                            <path class="st0" d="M-892.7,497.4l7.1,7.1l-2.5,2.5l-9.4-9.5C-895.1,495.6-893,497.1-892.7,497.4" />
                            <path class="st0" d="M-901,501l2.5-2.5l9.4,9.4l-2.5,2.5L-901,501z" />
                            <path class="st0" d="M-872.7,508.1l-7.2-7.2l2.5-2.5l9.5,9.5C-870.3,509.9-872.4,508.3-872.7,508.1" />
                            <path class="st0" d="M-869.3,504.5l-7.1-7.1l2.5-2.5l9.4,9.5C-866.9,506.3-869,504.8-869.3,504.5" />
                            <path class="st0" d="M-872.9,493.9l2.5-2.5l9.5,9.5l-2.5,2.5L-872.9,493.9z" />
                            <path class="st0" d="M-888.2,509.2l7.2-7.2l2.5,2.5l-9.5,9.5C-890.1,511.6-888.5,509.6-888.2,509.2" />
                            <path class="st0" d="M-884.7,512.7l7.1-7.1l2.5,2.5l-9.5,9.4C-886.5,515.1-884.9,513-884.7,512.7" />
                            <path class="st0" d="M-874.1,509.1l2.5,2.5l-9.5,9.5l-2.5-2.5L-874.1,509.1z" />
</g>
                                                                                               </svg>
